<?xml version="1.0" standalone="no"?>
<!DOCTYPE svg PUBLIC "-//W3C//DTD SVG 20010904//EN"
 "http://www.w3.org/TR/2001/REC-SVG-20010904/DTD/svg10.dtd">
<svg version="1.0" xmlns="http://www.w3.org/2000/svg"
 width="512.000000pt" height="512.000000pt" viewBox="0 0 512.000000 512.000000"
 preserveAspectRatio="xMidYMid meet">
<metadata>
Created by potrace 1.14, written by Peter Selinger 2001-2017
</metadata>
<g transform="translate(0.000000,512.000000) scale(0.100000,-0.100000)"
fill="#000000" stroke="none">
<path d="M177 5016 c-46 -17 -99 -56 -127 -95 -53 -75 -50 25 -48 -1845 l3
-1731 22 -45 c35 -74 117 -137 188 -147 11 -1 444 -3 962 -4 l941 -1 -3 -72
c-10 -225 -69 -392 -176 -498 -105 -104 -195 -133 -416 -137 -94 -1 -156 -6
-177 -15 -38 -16 -85 -62 -98 -96 -31 -80 9 -182 85 -219 43 -21 46 -21 1227
-21 1181 0 1184 0 1227 21 93 45 123 161 63 251 -44 66 -83 78 -261 80 -159 2
-231 16 -319 64 -118 64 -220 228 -245 394 -4 25 -9 59 -11 75 -3 17 -7 62 -9
102 l-3 72 938 -1 c516 0 953 3 971 7 54 12 91 34 135 81 80 83 74 -68 74
1854 0 1889 4 1764 -61 1843 -17 20 -52 49 -77 65 l-47 27 -2360 2 c-1954 2
-2366 0 -2398 -11z"/>
</g>
</svg>
